# xmcd CD database file
# Copyright (C) 1993-1996 Ti Kan
#
# Track frame offsets:
# 150
# 11987
# 24087
# 35297
# 47137
# 57062
# 70365
# 81160
# 91067
# 101992
# 111557
# 120612
# 131012
# 141435
# 150940
# 160467
# 171307
# 182230
# 191877
# 205812
# 215750
# 226272
# 236927
# 247497
# 257430
# 268490
# 279035
# 290587
# 299857
#
# Disc length: 4131 seconds
#
# Revision: 0
# Processed by: cddbd v1.4b41PL1 Copyright (c) Steve Scherf et al.
# Submitted via: inCDius 1.1b5
#
DISCID=cb10211d
DTITLE=Justin Tubb - Rock It Down To My House - Disc 2
DYEAR=1900
DGENRE=
TTITLE0=It Takes A Lot O' Heart
TTITLE1=I'm Just Fool Enough
TTITLE2=I'm A Big Boy Now
TTITLE3=The Life I Have To Live
TTITLE4=Bachelor Man
TTITLE5=The Party Is Over (For Me)
TTITLE6=Tears Of Angels
TTITLE7=If You'll Be My Love
TTITLE8=Someday, You'll Want Me To Want You
TTITLE9=I Saw Your Face In The Moon
TTITLE10=Try Me One More Time
TTITLE11=I'd Trade All Of My Tomorrows
TTITLE12=Silver Dew On The Bluegrass
TTITLE13=Bonaparte's Retreat
TTITLE14=There'll Be No Teardrops Tonight
TTITLE15=Gone And Left Me Blues
TTITLE16=My Mary
TTITLE17=Into Each Life Some Rain Must Fall
TTITLE18=I Gotta Have My Baby Back
TTITLE19=Hang Your Head In Shame
TTITLE20=Sugar Lips
TTITLE21=Rock It Down To My House
TTITLE22=Mine Is A Lonely Life
TTITLE23=Almost Lonely
TTITLE24=Giveaway Girl
TTITLE25=Heart's Command
TTITLE26=Buster's Gang
TTITLE27=I Wish I Could Love That Much
TTITLE28=I Know You Do
EXTD=
EXTT0=
EXTT1=
EXTT2=
EXTT3=
EXTT4=
EXTT5=
EXTT6=
EXTT7=
EXTT8=
EXTT9=
EXTT10=
EXTT11=
EXTT12=
EXTT13=
EXTT14=
EXTT15=
EXTT16=
EXTT17=
EXTT18=
EXTT19=
EXTT20=
EXTT21=
EXTT22=With Roger Miller
EXTT23=
EXTT24=
EXTT25=
EXTT26=
EXTT27=
EXTT28=
PLAYORDER=
